<svg xmlns="http://www.w3.org/2000/svg">
<rect x="68.00" y="75.00" width="14.00" height="29.00" stroke="#800080" fill="#FF00FF" stroke-width="1" opacity="0.6" />
<line x1="59.00" y1="65.00" x2="68.00" y2="78.00" stroke="#008000" stroke-width="1" opacity="0.6" />
<line x1="74.50" y1="59.90" x2="75.00" y2="77.00" stroke="#008000" stroke-width="1" opacity="0.6" />
<circle cx="55.00" cy="60.00" r="5.00" stroke="#501644" fill="#d35fbc" stroke-width="1" opacity="0.6" />
<circle cx="74.00" cy="55.00" r="5.00" stroke="#501644" fill="#d35fbc" stroke-width="1" opacity="0.6" />
<polygon points="30.00,124.00 30.00,124.00 30.00,124.00 30.00,124.00 68.00,104.00 68.00,104.00 68.00,94.00 82.00,104.00 82.00,91.20 82.00,88.80 82.00,88.80 82.00,88.00 82.00,88.00 82.00,88.00 118.00,124.00 118.00,124.00 118.00,122.89 118.00,122.89 118.00,122.89 118.00,122.89 118.00,122.73 118.00,121.46 118.00,119.36 118.00,119.36 118.00,117.51 118.00,110.02 118.00,30.00 118.00,30.00 118.00,30.00 118.00,30.00 " style="fill:yellow;fill-opacity:0.50;stroke:yellow;stroke-width:1" />
</svg>
