<svg xmlns="http://www.w3.org/2000/svg">
<text x="202.95" y="42.51" stroke="#cc00ff" fill="#6600ff" text-anchor="middle" opacity="0.6">*</text>
<text x="80.83" y="296.10" stroke="#cc00ff" fill="#6600ff" text-anchor="middle" opacity="0.6">*</text>
<line x1="336.73" y1="350.63" x2="337.23" y2="367.73" stroke="#008000" stroke-width="1" opacity="0.6" />
<line x1="168.95" y1="390.49" x2="177.95" y2="403.49" stroke="#008000" stroke-width="1" opacity="0.6" />
<rect x="55.83" y="303.10" width="14.00" height="29.00" stroke="#800080" fill="#FF00FF" stroke-width="1" opacity="0.6" />
<line x1="420.50" y1="213.30" x2="409.70" y2="228.30" stroke="#008000" stroke-width="1" opacity="0.6" />
<line x1="184.45" y1="34.41" x2="184.95" y2="51.51" stroke="#008000" stroke-width="1" opacity="0.6" />
<text x="164.95" y="394.49" stroke="#cc00ff" fill="#6600ff" text-anchor="middle" opacity="0.6">*</text>
<line x1="168.95" y1="39.51" x2="177.95" y2="52.51" stroke="#008000" stroke-width="1" opacity="0.6" />
<line x1="184.45" y1="385.39" x2="184.95" y2="402.49" stroke="#008000" stroke-width="1" opacity="0.6" />
<line x1="78.33" y1="291.40" x2="67.53" y2="306.40" stroke="#008000" stroke-width="1" opacity="0.6" />
<circle cx="42.83" cy="288.10" r="5.00" stroke="#cc00ff" fill="#6600ff" stroke-width="1" opacity="0.6" />
<circle cx="355.23" cy="349.73" r="5.00" stroke="#cc00ff" fill="#6600ff" stroke-width="1" opacity="0.6" />
<line x1="352.73" y1="72.57" x2="341.93" y2="87.57" stroke="#008000" stroke-width="1" opacity="0.6" />
<text x="183.95" y="38.51" stroke="#cc00ff" fill="#6600ff" text-anchor="middle" opacity="0.6">*</text>
<line x1="46.83" y1="293.10" x2="55.83" y2="306.10" stroke="#008000" stroke-width="1" opacity="0.6" />
<line x1="389.00" y1="215.00" x2="398.00" y2="228.00" stroke="#008000" stroke-width="1" opacity="0.6" />
<circle cx="183.95" cy="29.51" r="5.00" stroke="#cc00ff" fill="#6600ff" stroke-width="1" opacity="0.6" />
<text x="164.95" y="43.51" stroke="#cc00ff" fill="#6600ff" text-anchor="middle" opacity="0.6">*</text>
<rect x="177.95" y="49.51" width="14.00" height="29.00" stroke="#800080" fill="#FF00FF" stroke-width="1" opacity="0.6" />
<circle cx="164.95" cy="34.51" r="5.00" stroke="#cc00ff" fill="#6600ff" stroke-width="1" opacity="0.6" />
<circle cx="42.83" cy="131.90" r="5.00" stroke="#cc00ff" fill="#6600ff" stroke-width="1" opacity="0.6" />
<rect x="55.83" y="146.90" width="14.00" height="29.00" stroke="#800080" fill="#FF00FF" stroke-width="1" opacity="0.6" />
<circle cx="183.95" cy="380.49" r="5.00" stroke="#cc00ff" fill="#6600ff" stroke-width="1" opacity="0.6" />
<circle cx="317.23" cy="69.27" r="5.00" stroke="#cc00ff" fill="#6600ff" stroke-width="1" opacity="0.6" />
<text x="61.83" y="135.90" stroke="#cc00ff" fill="#6600ff" text-anchor="middle" opacity="0.6">*</text>
<circle cx="336.23" cy="64.27" r="5.00" stroke="#cc00ff" fill="#6600ff" stroke-width="1" opacity="0.6" />
<text x="355.23" y="358.73" stroke="#cc00ff" fill="#6600ff" text-anchor="middle" opacity="0.6">*</text>
<circle cx="404.00" cy="205.00" r="5.00" stroke="#cc00ff" fill="#6600ff" stroke-width="1" opacity="0.6" />
<text x="336.23" y="73.27" stroke="#cc00ff" fill="#6600ff" text-anchor="middle" opacity="0.6">*</text>
<circle cx="202.95" cy="384.49" r="5.00" stroke="#cc00ff" fill="#6600ff" stroke-width="1" opacity="0.6" />
<line x1="321.23" y1="74.27" x2="330.23" y2="87.27" stroke="#008000" stroke-width="1" opacity="0.6" />
<circle cx="317.23" cy="350.73" r="5.00" stroke="#cc00ff" fill="#6600ff" stroke-width="1" opacity="0.6" />
<text x="355.23" y="77.27" stroke="#cc00ff" fill="#6600ff" text-anchor="middle" opacity="0.6">*</text>
<rect x="177.95" y="400.49" width="14.00" height="29.00" stroke="#800080" fill="#FF00FF" stroke-width="1" opacity="0.6" />
<text x="423.00" y="218.00" stroke="#cc00ff" fill="#6600ff" text-anchor="middle" opacity="0.6">*</text>
<circle cx="80.83" cy="130.90" r="5.00" stroke="#cc00ff" fill="#6600ff" stroke-width="1" opacity="0.6" />
<text x="202.95" y="393.49" stroke="#cc00ff" fill="#6600ff" text-anchor="middle" opacity="0.6">*</text>
<text x="183.95" y="389.49" stroke="#cc00ff" fill="#6600ff" text-anchor="middle" opacity="0.6">*</text>
<line x1="200.45" y1="388.79" x2="189.65" y2="403.79" stroke="#008000" stroke-width="1" opacity="0.6" />
<line x1="200.45" y1="37.81" x2="189.65" y2="52.81" stroke="#008000" stroke-width="1" opacity="0.6" />
<line x1="46.83" y1="136.90" x2="55.83" y2="149.90" stroke="#008000" stroke-width="1" opacity="0.6" />
<text x="317.23" y="359.73" stroke="#cc00ff" fill="#6600ff" text-anchor="middle" opacity="0.6">*</text>
<circle cx="385.00" cy="210.00" r="5.00" stroke="#cc00ff" fill="#6600ff" stroke-width="1" opacity="0.6" />
<circle cx="423.00" cy="209.00" r="5.00" stroke="#cc00ff" fill="#6600ff" stroke-width="1" opacity="0.6" />
<text x="404.00" y="214.00" stroke="#cc00ff" fill="#6600ff" text-anchor="middle" opacity="0.6">*</text>
<line x1="62.33" y1="288.00" x2="62.83" y2="305.10" stroke="#008000" stroke-width="1" opacity="0.6" />
<line x1="352.73" y1="354.03" x2="341.93" y2="369.03" stroke="#008000" stroke-width="1" opacity="0.6" />
<rect x="330.23" y="84.27" width="14.00" height="29.00" stroke="#800080" fill="#FF00FF" stroke-width="1" opacity="0.6" />
<text x="385.00" y="219.00" stroke="#cc00ff" fill="#6600ff" text-anchor="middle" opacity="0.6">*</text>
<text x="42.83" y="140.90" stroke="#cc00ff" fill="#6600ff" text-anchor="middle" opacity="0.6">*</text>
<line x1="62.33" y1="131.80" x2="62.83" y2="148.90" stroke="#008000" stroke-width="1" opacity="0.6" />
<circle cx="61.83" cy="283.10" r="5.00" stroke="#cc00ff" fill="#6600ff" stroke-width="1" opacity="0.6" />
<circle cx="336.23" cy="345.73" r="5.00" stroke="#cc00ff" fill="#6600ff" stroke-width="1" opacity="0.6" />
<circle cx="202.95" cy="33.51" r="5.00" stroke="#cc00ff" fill="#6600ff" stroke-width="1" opacity="0.6" />
<line x1="321.23" y1="355.73" x2="330.23" y2="368.73" stroke="#008000" stroke-width="1" opacity="0.6" />
<rect x="330.23" y="365.73" width="14.00" height="29.00" stroke="#800080" fill="#FF00FF" stroke-width="1" opacity="0.6" />
<text x="42.83" y="297.10" stroke="#cc00ff" fill="#6600ff" text-anchor="middle" opacity="0.6">*</text>
<line x1="336.73" y1="69.17" x2="337.23" y2="86.27" stroke="#008000" stroke-width="1" opacity="0.6" />
<text x="61.83" y="292.10" stroke="#cc00ff" fill="#6600ff" text-anchor="middle" opacity="0.6">*</text>
<text x="317.23" y="78.27" stroke="#cc00ff" fill="#6600ff" text-anchor="middle" opacity="0.6">*</text>
<text x="80.83" y="139.90" stroke="#cc00ff" fill="#6600ff" text-anchor="middle" opacity="0.6">*</text>
<rect x="398.00" y="225.00" width="14.00" height="29.00" stroke="#800080" fill="#FF00FF" stroke-width="1" opacity="0.6" />
<line x1="404.50" y1="209.90" x2="405.00" y2="227.00" stroke="#008000" stroke-width="1" opacity="0.6" />
<circle cx="61.83" cy="126.90" r="5.00" stroke="#cc00ff" fill="#6600ff" stroke-width="1" opacity="0.6" />
<text x="336.23" y="354.73" stroke="#cc00ff" fill="#6600ff" text-anchor="middle" opacity="0.6">*</text>
<circle cx="355.23" cy="68.27" r="5.00" stroke="#cc00ff" fill="#6600ff" stroke-width="1" opacity="0.6" />
<circle cx="80.83" cy="287.10" r="5.00" stroke="#cc00ff" fill="#6600ff" stroke-width="1" opacity="0.6" />
<line x1="78.33" y1="135.20" x2="67.53" y2="150.20" stroke="#008000" stroke-width="1" opacity="0.6" />
<circle cx="164.95" cy="385.49" r="5.00" stroke="#cc00ff" fill="#6600ff" stroke-width="1" opacity="0.6" />
<line x1="336.73" y1="350.63" x2="337.23" y2="367.73" stroke="black" stroke-width="1" />
<line x1="168.95" y1="390.49" x2="177.95" y2="403.49" stroke="black" stroke-width="1" />
<line x1="55.83" y1="303.10" x2="69.83" y2="303.10" stroke="black" stroke-width="1" />
<line x1="69.83" y1="303.10" x2="69.83" y2="332.10" stroke="black" stroke-width="1" />
<line x1="69.83" y1="332.10" x2="55.83" y2="332.10" stroke="black" stroke-width="1" />
<line x1="55.83" y1="332.10" x2="55.83" y2="303.10" stroke="black" stroke-width="1" />
<line x1="420.50" y1="213.30" x2="409.70" y2="228.30" stroke="black" stroke-width="1" />
<line x1="184.45" y1="34.41" x2="184.95" y2="51.51" stroke="black" stroke-width="1" />
<line x1="168.95" y1="39.51" x2="177.95" y2="52.51" stroke="black" stroke-width="1" />
<line x1="130.91" y1="174.45" x2="155.67" y2="199.19" stroke="black" stroke-width="1" />
<line x1="184.45" y1="385.39" x2="184.95" y2="402.49" stroke="black" stroke-width="1" />
<line x1="78.33" y1="291.40" x2="67.53" y2="306.40" stroke="black" stroke-width="1" />
<line x1="268.11" y1="283.86" x2="292.87" y2="308.60" stroke="black" stroke-width="1" />
<line x1="352.73" y1="72.57" x2="341.93" y2="87.57" stroke="black" stroke-width="1" />
<line x1="191.97" y1="301.24" x2="216.73" y2="325.98" stroke="black" stroke-width="1" />
<line x1="46.83" y1="293.10" x2="55.83" y2="306.10" stroke="black" stroke-width="1" />
<line x1="389.00" y1="215.00" x2="398.00" y2="228.00" stroke="black" stroke-width="1" />
<line x1="177.95" y1="49.51" x2="191.95" y2="49.51" stroke="black" stroke-width="1" />
<line x1="191.95" y1="49.51" x2="191.95" y2="78.51" stroke="black" stroke-width="1" />
<line x1="191.95" y1="78.51" x2="177.95" y2="78.51" stroke="black" stroke-width="1" />
<line x1="177.95" y1="78.51" x2="177.95" y2="49.51" stroke="black" stroke-width="1" />
<line x1="55.83" y1="146.90" x2="69.83" y2="146.90" stroke="black" stroke-width="1" />
<line x1="69.83" y1="146.90" x2="69.83" y2="175.90" stroke="black" stroke-width="1" />
<line x1="69.83" y1="175.90" x2="55.83" y2="175.90" stroke="black" stroke-width="1" />
<line x1="55.83" y1="175.90" x2="55.83" y2="146.90" stroke="black" stroke-width="1" />
<line x1="130.91" y1="252.55" x2="155.67" y2="277.29" stroke="black" stroke-width="1" />
<line x1="321.23" y1="74.27" x2="330.23" y2="87.27" stroke="black" stroke-width="1" />
<line x1="302.00" y1="213.50" x2="326.76" y2="238.24" stroke="black" stroke-width="1" />
<line x1="177.95" y1="400.49" x2="191.95" y2="400.49" stroke="black" stroke-width="1" />
<line x1="191.95" y1="400.49" x2="191.95" y2="429.49" stroke="black" stroke-width="1" />
<line x1="191.95" y1="429.49" x2="177.95" y2="429.49" stroke="black" stroke-width="1" />
<line x1="177.95" y1="429.49" x2="177.95" y2="400.49" stroke="black" stroke-width="1" />
<line x1="200.45" y1="388.79" x2="189.65" y2="403.79" stroke="black" stroke-width="1" />
<line x1="200.45" y1="37.81" x2="189.65" y2="52.81" stroke="black" stroke-width="1" />
<line x1="46.83" y1="136.90" x2="55.83" y2="149.90" stroke="black" stroke-width="1" />
<line x1="268.11" y1="143.14" x2="292.87" y2="167.87" stroke="black" stroke-width="1" />
<line x1="62.33" y1="288.00" x2="62.83" y2="305.10" stroke="black" stroke-width="1" />
<line x1="352.73" y1="354.03" x2="341.93" y2="369.03" stroke="black" stroke-width="1" />
<line x1="330.23" y1="84.27" x2="344.23" y2="84.27" stroke="black" stroke-width="1" />
<line x1="344.23" y1="84.27" x2="344.23" y2="113.27" stroke="black" stroke-width="1" />
<line x1="344.23" y1="113.27" x2="330.23" y2="113.27" stroke="black" stroke-width="1" />
<line x1="330.23" y1="113.27" x2="330.23" y2="84.27" stroke="black" stroke-width="1" />
<line x1="62.33" y1="131.80" x2="62.83" y2="148.90" stroke="black" stroke-width="1" />
<line x1="321.23" y1="355.73" x2="330.23" y2="368.73" stroke="black" stroke-width="1" />
<line x1="330.23" y1="365.73" x2="344.23" y2="365.73" stroke="black" stroke-width="1" />
<line x1="344.23" y1="365.73" x2="344.23" y2="394.73" stroke="black" stroke-width="1" />
<line x1="344.23" y1="394.73" x2="330.23" y2="394.73" stroke="black" stroke-width="1" />
<line x1="330.23" y1="394.73" x2="330.23" y2="365.73" stroke="black" stroke-width="1" />
<line x1="336.73" y1="69.17" x2="337.23" y2="86.27" stroke="black" stroke-width="1" />
<line x1="398.00" y1="225.00" x2="412.00" y2="225.00" stroke="black" stroke-width="1" />
<line x1="412.00" y1="225.00" x2="412.00" y2="254.00" stroke="black" stroke-width="1" />
<line x1="412.00" y1="254.00" x2="398.00" y2="254.00" stroke="black" stroke-width="1" />
<line x1="398.00" y1="254.00" x2="398.00" y2="225.00" stroke="black" stroke-width="1" />
<line x1="404.50" y1="209.90" x2="405.00" y2="227.00" stroke="black" stroke-width="1" />
<line x1="191.97" y1="125.76" x2="216.73" y2="150.50" stroke="black" stroke-width="1" />
<line x1="78.33" y1="135.20" x2="67.53" y2="150.20" stroke="black" stroke-width="1" />
<line x1="130.91" y1="174.45" x2="155.67" y2="199.19" stroke="#00aa88" stroke-width="1" />
<line x1="268.11" y1="283.86" x2="292.87" y2="308.60" stroke="#00aa88" stroke-width="1" />
<line x1="136.97" y1="125.76" x2="246.97" y2="125.76" stroke="#000000" stroke-width="1" />
<line x1="136.97" y1="301.24" x2="246.97" y2="301.24" stroke="#000000" stroke-width="1" />
<line x1="191.97" y1="301.24" x2="216.73" y2="325.98" stroke="#00aa88" stroke-width="1" />
<line x1="247.00" y1="213.50" x2="357.00" y2="213.50" stroke="#000000" stroke-width="1" />
<line x1="302.00" y1="183.50" x2="302.00" y2="243.50" stroke="#a05a2c" stroke-width="1" />
<line x1="75.91" y1="174.45" x2="185.91" y2="174.45" stroke="#000000" stroke-width="1" />
<line x1="130.91" y1="252.55" x2="155.67" y2="277.29" stroke="#00aa88" stroke-width="1" />
<line x1="302.00" y1="213.50" x2="326.76" y2="238.24" stroke="#00aa88" stroke-width="1" />
<line x1="268.11" y1="253.86" x2="268.11" y2="313.86" stroke="#a05a2c" stroke-width="1" />
<line x1="268.11" y1="143.14" x2="292.87" y2="167.87" stroke="#00aa88" stroke-width="1" />
<line x1="75.91" y1="252.55" x2="185.91" y2="252.55" stroke="#000000" stroke-width="1" />
<line x1="130.91" y1="222.55" x2="130.91" y2="282.55" stroke="#a05a2c" stroke-width="1" />
<line x1="130.91" y1="144.45" x2="130.91" y2="204.45" stroke="#a05a2c" stroke-width="1" />
<line x1="213.11" y1="143.14" x2="323.11" y2="143.14" stroke="#000000" stroke-width="1" />
<line x1="268.11" y1="113.14" x2="268.11" y2="173.14" stroke="#a05a2c" stroke-width="1" />
<line x1="191.97" y1="125.76" x2="216.73" y2="150.50" stroke="#00aa88" stroke-width="1" />
<line x1="191.97" y1="271.24" x2="191.97" y2="331.24" stroke="#a05a2c" stroke-width="1" />
<line x1="191.97" y1="95.76" x2="191.97" y2="155.76" stroke="#a05a2c" stroke-width="1" />
<line x1="213.11" y1="283.86" x2="323.11" y2="283.86" stroke="#000000" stroke-width="1" />
<line x1="400.91" y1="444.45" x2="425.67" y2="469.19" stroke="black" stroke-width="1" />
<line x1="538.11" y1="553.86" x2="562.87" y2="578.60" stroke="black" stroke-width="1" />
<line x1="461.97" y1="571.24" x2="486.73" y2="595.98" stroke="black" stroke-width="1" />
<line x1="400.91" y1="522.55" x2="425.67" y2="547.29" stroke="black" stroke-width="1" />
<line x1="572.00" y1="483.50" x2="596.76" y2="508.24" stroke="black" stroke-width="1" />
<line x1="538.11" y1="413.14" x2="562.87" y2="437.87" stroke="black" stroke-width="1" />
<line x1="461.97" y1="395.76" x2="486.73" y2="420.50" stroke="black" stroke-width="1" />
<line x1="400.91" y1="444.45" x2="425.67" y2="469.19" stroke="#00aa88" stroke-width="1" />
<line x1="538.11" y1="553.86" x2="562.87" y2="578.60" stroke="#00aa88" stroke-width="1" />
<line x1="461.97" y1="571.24" x2="486.73" y2="595.98" stroke="#00aa88" stroke-width="1" />
<line x1="517.00" y1="483.50" x2="627.00" y2="483.50" stroke="#000000" stroke-width="1" />
<line x1="400.91" y1="522.55" x2="425.67" y2="547.29" stroke="#00aa88" stroke-width="1" />
<line x1="572.00" y1="483.50" x2="596.76" y2="508.24" stroke="#00aa88" stroke-width="1" />
<line x1="538.11" y1="523.86" x2="538.11" y2="583.86" stroke="#a05a2c" stroke-width="1" />
<line x1="538.11" y1="413.14" x2="562.87" y2="437.87" stroke="#00aa88" stroke-width="1" />
<line x1="345.91" y1="522.55" x2="455.91" y2="522.55" stroke="#000000" stroke-width="1" />
<line x1="400.91" y1="492.55" x2="400.91" y2="552.55" stroke="#a05a2c" stroke-width="1" />
<line x1="483.11" y1="413.14" x2="593.11" y2="413.14" stroke="#000000" stroke-width="1" />
<line x1="461.97" y1="395.76" x2="486.73" y2="420.50" stroke="#00aa88" stroke-width="1" />
<line x1="461.97" y1="541.24" x2="461.97" y2="601.24" stroke="#a05a2c" stroke-width="1" />
<line x1="483.11" y1="553.86" x2="593.11" y2="553.86" stroke="#000000" stroke-width="1" />
<polygon points="302.00,200.00 302.00,204.94 302.00,213.50 302.00,213.50 247.00,213.50 302.00,229.30 302.00,243.50 20000.00,8644.12 20000.00,13687.68 323.11,283.86 283.86,283.86 268.11,268.11 268.11,283.86 268.11,283.86 268.11,283.86 268.11,283.86 268.11,286.68 265.90,283.86 213.11,283.86 215.83,301.24 191.51,301.24 191.97,295.67 188.59,301.24 147.84,301.24 172.93,252.55 130.04,252.55 130.91,251.90 -10000.00,3529.20 -10000.00,857.06 130.91,204.45 130.91,188.45 147.74,191.26 130.91,174.45 130.91,174.45 130.91,174.45 130.91,174.45 185.91,174.45 159.06,125.76 186.53,125.76 191.97,155.76 191.97,125.76 191.97,125.76 219.22,143.14 268.15,143.14 268.11,143.17 268.11,173.14 289.64,164.64 292.87,167.87 292.87,167.87 292.87,167.87 " style="fill:yellow;fill-opacity:0.50;stroke:yellow;stroke-width:1" />
</svg>
