<svg xmlns="http://www.w3.org/2000/svg">
<text x="202.95" y="42.51" stroke="#cc00ff" fill="#6600ff" text-anchor="middle" opacity="0.6">*</text>
<text x="80.83" y="296.10" stroke="#cc00ff" fill="#6600ff" text-anchor="middle" opacity="0.6">*</text>
<line x1="336.73" y1="350.63" x2="337.23" y2="367.73" stroke="#008000" stroke-width="1" opacity="0.6" />
<line x1="168.95" y1="390.49" x2="177.95" y2="403.49" stroke="#008000" stroke-width="1" opacity="0.6" />
<rect x="55.83" y="303.10" width="14.00" height="29.00" stroke="#800080" fill="#FF00FF" stroke-width="1" opacity="0.6" />
<line x1="420.50" y1="213.30" x2="409.70" y2="228.30" stroke="#008000" stroke-width="1" opacity="0.6" />
<line x1="184.45" y1="34.41" x2="184.95" y2="51.51" stroke="#008000" stroke-width="1" opacity="0.6" />
<text x="164.95" y="394.49" stroke="#cc00ff" fill="#6600ff" text-anchor="middle" opacity="0.6">*</text>
<line x1="168.95" y1="39.51" x2="177.95" y2="52.51" stroke="#008000" stroke-width="1" opacity="0.6" />
<line x1="130.91" y1="174.45" x2="155.67" y2="199.19" stroke="#00aa88" stroke-width="1" opacity="0.6" />
<line x1="184.45" y1="385.39" x2="184.95" y2="402.49" stroke="#008000" stroke-width="1" opacity="0.6" />
<line x1="78.33" y1="291.40" x2="67.53" y2="306.40" stroke="#008000" stroke-width="1" opacity="0.6" />
<circle cx="42.83" cy="288.10" r="5.00" stroke="#cc00ff" fill="#6600ff" stroke-width="1" opacity="0.6" />
<line x1="268.11" y1="283.86" x2="292.87" y2="308.60" stroke="#00aa88" stroke-width="1" opacity="0.6" />
<circle cx="355.23" cy="349.73" r="5.00" stroke="#cc00ff" fill="#6600ff" stroke-width="1" opacity="0.6" />
<line x1="352.73" y1="72.57" x2="341.93" y2="87.57" stroke="#008000" stroke-width="1" opacity="0.6" />
<line x1="191.97" y1="301.24" x2="216.73" y2="325.98" stroke="#00aa88" stroke-width="1" opacity="0.6" />
<text x="183.95" y="38.51" stroke="#cc00ff" fill="#6600ff" text-anchor="middle" opacity="0.6">*</text>
<line x1="46.83" y1="293.10" x2="55.83" y2="306.10" stroke="#008000" stroke-width="1" opacity="0.6" />
<line x1="389.00" y1="215.00" x2="398.00" y2="228.00" stroke="#008000" stroke-width="1" opacity="0.6" />
<circle cx="183.95" cy="29.51" r="5.00" stroke="#cc00ff" fill="#6600ff" stroke-width="1" opacity="0.6" />
<text x="164.95" y="43.51" stroke="#cc00ff" fill="#6600ff" text-anchor="middle" opacity="0.6">*</text>
<rect x="177.95" y="49.51" width="14.00" height="29.00" stroke="#800080" fill="#FF00FF" stroke-width="1" opacity="0.6" />
<circle cx="164.95" cy="34.51" r="5.00" stroke="#cc00ff" fill="#6600ff" stroke-width="1" opacity="0.6" />
<circle cx="42.83" cy="131.90" r="5.00" stroke="#cc00ff" fill="#6600ff" stroke-width="1" opacity="0.6" />
<rect x="55.83" y="146.90" width="14.00" height="29.00" stroke="#800080" fill="#FF00FF" stroke-width="1" opacity="0.6" />
<circle cx="183.95" cy="380.49" r="5.00" stroke="#cc00ff" fill="#6600ff" stroke-width="1" opacity="0.6" />
<circle cx="317.23" cy="69.27" r="5.00" stroke="#cc00ff" fill="#6600ff" stroke-width="1" opacity="0.6" />
<text x="61.83" y="135.90" stroke="#cc00ff" fill="#6600ff" text-anchor="middle" opacity="0.6">*</text>
<circle cx="336.23" cy="64.27" r="5.00" stroke="#cc00ff" fill="#6600ff" stroke-width="1" opacity="0.6" />
<text x="355.23" y="358.73" stroke="#cc00ff" fill="#6600ff" text-anchor="middle" opacity="0.6">*</text>
<circle cx="404.00" cy="205.00" r="5.00" stroke="#cc00ff" fill="#6600ff" stroke-width="1" opacity="0.6" />
<text x="336.23" y="73.27" stroke="#cc00ff" fill="#6600ff" text-anchor="middle" opacity="0.6">*</text>
<circle cx="202.95" cy="384.49" r="5.00" stroke="#cc00ff" fill="#6600ff" stroke-width="1" opacity="0.6" />
<line x1="130.91" y1="252.55" x2="155.67" y2="277.29" stroke="#00aa88" stroke-width="1" opacity="0.6" />
<line x1="321.23" y1="74.27" x2="330.23" y2="87.27" stroke="#008000" stroke-width="1" opacity="0.6" />
<line x1="302.00" y1="213.50" x2="326.76" y2="238.24" stroke="#00aa88" stroke-width="1" opacity="0.6" />
<circle cx="317.23" cy="350.73" r="5.00" stroke="#cc00ff" fill="#6600ff" stroke-width="1" opacity="0.6" />
<text x="355.23" y="77.27" stroke="#cc00ff" fill="#6600ff" text-anchor="middle" opacity="0.6">*</text>
<rect x="177.95" y="400.49" width="14.00" height="29.00" stroke="#800080" fill="#FF00FF" stroke-width="1" opacity="0.6" />
<text x="423.00" y="218.00" stroke="#cc00ff" fill="#6600ff" text-anchor="middle" opacity="0.6">*</text>
<circle cx="80.83" cy="130.90" r="5.00" stroke="#cc00ff" fill="#6600ff" stroke-width="1" opacity="0.6" />
<text x="202.95" y="393.49" stroke="#cc00ff" fill="#6600ff" text-anchor="middle" opacity="0.6">*</text>
<text x="183.95" y="389.49" stroke="#cc00ff" fill="#6600ff" text-anchor="middle" opacity="0.6">*</text>
<line x1="200.45" y1="388.79" x2="189.65" y2="403.79" stroke="#008000" stroke-width="1" opacity="0.6" />
<line x1="200.45" y1="37.81" x2="189.65" y2="52.81" stroke="#008000" stroke-width="1" opacity="0.6" />
<line x1="46.83" y1="136.90" x2="55.83" y2="149.90" stroke="#008000" stroke-width="1" opacity="0.6" />
<line x1="268.11" y1="143.14" x2="292.87" y2="167.87" stroke="#00aa88" stroke-width="1" opacity="0.6" />
<text x="317.23" y="359.73" stroke="#cc00ff" fill="#6600ff" text-anchor="middle" opacity="0.6">*</text>
<circle cx="385.00" cy="210.00" r="5.00" stroke="#cc00ff" fill="#6600ff" stroke-width="1" opacity="0.6" />
<circle cx="423.00" cy="209.00" r="5.00" stroke="#cc00ff" fill="#6600ff" stroke-width="1" opacity="0.6" />
<text x="404.00" y="214.00" stroke="#cc00ff" fill="#6600ff" text-anchor="middle" opacity="0.6">*</text>
<line x1="62.33" y1="288.00" x2="62.83" y2="305.10" stroke="#008000" stroke-width="1" opacity="0.6" />
<line x1="352.73" y1="354.03" x2="341.93" y2="369.03" stroke="#008000" stroke-width="1" opacity="0.6" />
<rect x="330.23" y="84.27" width="14.00" height="29.00" stroke="#800080" fill="#FF00FF" stroke-width="1" opacity="0.6" />
<text x="385.00" y="219.00" stroke="#cc00ff" fill="#6600ff" text-anchor="middle" opacity="0.6">*</text>
<text x="42.83" y="140.90" stroke="#cc00ff" fill="#6600ff" text-anchor="middle" opacity="0.6">*</text>
<line x1="62.33" y1="131.80" x2="62.83" y2="148.90" stroke="#008000" stroke-width="1" opacity="0.6" />
<circle cx="61.83" cy="283.10" r="5.00" stroke="#cc00ff" fill="#6600ff" stroke-width="1" opacity="0.6" />
<circle cx="336.23" cy="345.73" r="5.00" stroke="#cc00ff" fill="#6600ff" stroke-width="1" opacity="0.6" />
<circle cx="202.95" cy="33.51" r="5.00" stroke="#cc00ff" fill="#6600ff" stroke-width="1" opacity="0.6" />
<line x1="321.23" y1="355.73" x2="330.23" y2="368.73" stroke="#008000" stroke-width="1" opacity="0.6" />
<rect x="330.23" y="365.73" width="14.00" height="29.00" stroke="#800080" fill="#FF00FF" stroke-width="1" opacity="0.6" />
<text x="42.83" y="297.10" stroke="#cc00ff" fill="#6600ff" text-anchor="middle" opacity="0.6">*</text>
<line x1="336.73" y1="69.17" x2="337.23" y2="86.27" stroke="#008000" stroke-width="1" opacity="0.6" />
<text x="61.83" y="292.10" stroke="#cc00ff" fill="#6600ff" text-anchor="middle" opacity="0.6">*</text>
<text x="317.23" y="78.27" stroke="#cc00ff" fill="#6600ff" text-anchor="middle" opacity="0.6">*</text>
<text x="80.83" y="139.90" stroke="#cc00ff" fill="#6600ff" text-anchor="middle" opacity="0.6">*</text>
<rect x="398.00" y="225.00" width="14.00" height="29.00" stroke="#800080" fill="#FF00FF" stroke-width="1" opacity="0.6" />
<line x1="404.50" y1="209.90" x2="405.00" y2="227.00" stroke="#008000" stroke-width="1" opacity="0.6" />
<line x1="191.97" y1="125.76" x2="216.73" y2="150.50" stroke="#00aa88" stroke-width="1" opacity="0.6" />
<circle cx="61.83" cy="126.90" r="5.00" stroke="#cc00ff" fill="#6600ff" stroke-width="1" opacity="0.6" />
<text x="336.23" y="354.73" stroke="#cc00ff" fill="#6600ff" text-anchor="middle" opacity="0.6">*</text>
<circle cx="355.23" cy="68.27" r="5.00" stroke="#cc00ff" fill="#6600ff" stroke-width="1" opacity="0.6" />
<circle cx="80.83" cy="287.10" r="5.00" stroke="#cc00ff" fill="#6600ff" stroke-width="1" opacity="0.6" />
<line x1="78.33" y1="135.20" x2="67.53" y2="150.20" stroke="#008000" stroke-width="1" opacity="0.6" />
<circle cx="164.95" cy="385.49" r="5.00" stroke="#cc00ff" fill="#6600ff" stroke-width="1" opacity="0.6" />
<text x="350.83" y="566.10" stroke="#cc00ff" fill="#6600ff" text-anchor="middle" opacity="0.6">*</text>
<line x1="438.95" y1="660.49" x2="447.95" y2="673.49" stroke="#008000" stroke-width="1" opacity="0.6" />
<rect x="325.83" y="573.10" width="14.00" height="29.00" stroke="#800080" fill="#FF00FF" stroke-width="1" opacity="0.6" />
<line x1="400.91" y1="444.45" x2="425.67" y2="469.19" stroke="#00aa88" stroke-width="1" opacity="0.6" />
<line x1="348.33" y1="561.40" x2="337.53" y2="576.40" stroke="#008000" stroke-width="1" opacity="0.6" />
<line x1="538.11" y1="553.86" x2="562.87" y2="578.60" stroke="#00aa88" stroke-width="1" opacity="0.6" />
<line x1="461.97" y1="571.24" x2="486.73" y2="595.98" stroke="#00aa88" stroke-width="1" opacity="0.6" />
<line x1="659.00" y1="485.00" x2="668.00" y2="498.00" stroke="#008000" stroke-width="1" opacity="0.6" />
<text x="331.83" y="405.90" stroke="#cc00ff" fill="#6600ff" text-anchor="middle" opacity="0.6">*</text>
<line x1="400.91" y1="522.55" x2="425.67" y2="547.29" stroke="#00aa88" stroke-width="1" opacity="0.6" />
<line x1="572.00" y1="483.50" x2="596.76" y2="508.24" stroke="#00aa88" stroke-width="1" opacity="0.6" />
<rect x="447.95" y="670.49" width="14.00" height="29.00" stroke="#800080" fill="#FF00FF" stroke-width="1" opacity="0.6" />
<line x1="316.83" y1="406.90" x2="325.83" y2="419.90" stroke="#008000" stroke-width="1" opacity="0.6" />
<line x1="538.11" y1="413.14" x2="562.87" y2="437.87" stroke="#00aa88" stroke-width="1" opacity="0.6" />
<circle cx="655.00" cy="480.00" r="5.00" stroke="#cc00ff" fill="#6600ff" stroke-width="1" opacity="0.6" />
<line x1="332.33" y1="558.00" x2="332.83" y2="575.10" stroke="#008000" stroke-width="1" opacity="0.6" />
<line x1="332.33" y1="401.80" x2="332.83" y2="418.90" stroke="#008000" stroke-width="1" opacity="0.6" />
<text x="331.83" y="562.10" stroke="#cc00ff" fill="#6600ff" text-anchor="middle" opacity="0.6">*</text>
<text x="350.83" y="409.90" stroke="#cc00ff" fill="#6600ff" text-anchor="middle" opacity="0.6">*</text>
<line x1="674.50" y1="479.90" x2="675.00" y2="497.00" stroke="#008000" stroke-width="1" opacity="0.6" />
<line x1="461.97" y1="395.76" x2="486.73" y2="420.50" stroke="#00aa88" stroke-width="1" opacity="0.6" />
<circle cx="350.83" cy="557.10" r="5.00" stroke="#cc00ff" fill="#6600ff" stroke-width="1" opacity="0.6" />
<line x1="348.33" y1="405.20" x2="337.53" y2="420.20" stroke="#008000" stroke-width="1" opacity="0.6" />
<circle cx="434.95" cy="655.49" r="5.00" stroke="#cc00ff" fill="#6600ff" stroke-width="1" opacity="0.6" />
<polygon points="155.67,199.19 155.67,199.19 147.74,191.26 147.74,191.26 146.59,190.11 146.59,190.11 145.19,188.71 133.28,176.82 131.08,174.62 131.08,174.62 130.91,174.45 130.91,174.45 69.83,146.90 69.83,146.90 46.83,136.90 62.33,131.80 78.33,135.20 136.97,125.76 159.06,125.76 185.63,125.76 186.52,125.76 186.52,125.76 191.97,155.76 191.97,146.32 191.97,145.23 191.97,145.23 191.97,125.76 191.97,125.76 191.97,120.82 191.97,114.54 191.97,95.76 213.11,143.14 219.22,143.14 219.22,143.14 235.98,143.14 244.59,143.14 254.83,143.14 259.43,143.14 263.99,143.14 263.99,143.14 265.69,143.14 268.11,143.14 268.11,143.14 268.15,143.14 268.61,143.14 270.87,143.14 270.87,143.14 271.78,143.14 285.38,143.14 285.38,143.14 294.56,143.14 294.56,143.14 323.11,143.14 268.11,173.14 404.50,209.90 404.57,212.34 389.00,215.00 357.00,213.50 314.48,213.50 314.48,213.50 306.92,213.50 306.92,213.50 302.50,213.50 302.00,213.50 302.00,213.50 300.03,213.50 295.46,213.50 253.00,213.50 253.00,213.50 249.50,213.50 249.50,213.50 247.00,213.50 326.76,238.24 326.76,238.24 302.00,243.50 323.11,283.86 306.05,283.86 283.16,283.86 276.13,283.86 272.98,283.86 272.98,283.86 271.72,283.86 271.72,283.86 270.42,283.86 268.61,283.86 268.11,283.86 268.11,283.86 265.90,283.86 265.90,283.86 265.28,283.86 264.73,283.86 262.12,283.86 262.12,283.86 256.09,283.86 256.09,283.86 250.17,283.86 238.91,283.86 213.11,283.86 216.73,325.98 216.73,325.98 200.26,309.52 196.30,305.56 196.30,305.56 195.78,305.05 195.78,305.05 194.72,303.99 193.70,302.97 192.44,301.71 177.95,429.49 177.95,403.49 177.66,403.08 177.66,403.08 177.20,402.40 168.95,390.49 69.83,332.10 69.83,332.10 55.83,332.10 55.83,332.10 67.53,306.40 70.00,302.96 70.00,302.96 75.40,295.47 76.50,293.94 76.50,293.94 55.83,306.10 54.44,304.09 54.44,304.09 62.33,288.00 130.91,204.45 " style="fill:yellow;fill-opacity:0.50;stroke:yellow;stroke-width:1" />
</svg>
