<svg xmlns="http://www.w3.org/2000/svg">
<line x1="100.00" y1="100.00" x2="150.00" y2="100.00" stroke="black" stroke-width="1" />
<line x1="150.00" y1="100.00" x2="150.00" y2="150.00" stroke="green" stroke-width="1" />
<line x1="150.00" y1="150.00" x2="100.00" y2="150.00" stroke="green" stroke-width="1" />
<line x1="100.00" y1="150.00" x2="100.00" y2="100.00" stroke="black" stroke-width="1" />
<line x1="200.00" y1="200.00" x2="250.00" y2="250.00" stroke="black" stroke-width="1" />
<line x1="100.00" y1="100.00" x2="150.00" y2="100.00" stroke="red" stroke-width="1" />
<line x1="150.00" y1="100.00" x2="150.00" y2="150.00" stroke="green" stroke-width="1" />
<line x1="150.00" y1="150.00" x2="100.00" y2="150.00" stroke="green" stroke-width="1" />
<line x1="100.00" y1="150.00" x2="100.00" y2="100.00" stroke="red" stroke-width="1" />
<line x1="200.00" y1="200.00" x2="250.00" y2="250.00" stroke="blue" stroke-width="1" />
<line x1="150.00" y1="150.00" x2="200.00" y2="150.00" stroke="black" stroke-width="1" />
<line x1="200.00" y1="150.00" x2="200.00" y2="200.00" stroke="green" stroke-width="1" />
<line x1="200.00" y1="200.00" x2="150.00" y2="200.00" stroke="green" stroke-width="1" />
<line x1="150.00" y1="200.00" x2="150.00" y2="150.00" stroke="black" stroke-width="1" />
<line x1="250.00" y1="250.00" x2="300.00" y2="300.00" stroke="black" stroke-width="1" />
<line x1="150.00" y1="150.00" x2="200.00" y2="150.00" stroke="red" stroke-width="1" />
<line x1="200.00" y1="150.00" x2="200.00" y2="200.00" stroke="green" stroke-width="1" />
<line x1="200.00" y1="200.00" x2="150.00" y2="200.00" stroke="green" stroke-width="1" />
<line x1="150.00" y1="200.00" x2="150.00" y2="150.00" stroke="red" stroke-width="1" />
<line x1="250.00" y1="250.00" x2="300.00" y2="300.00" stroke="blue" stroke-width="1" />
<polygon points="150.00,125.00 150.00,125.00 150.00,125.00 150.00,125.00 150.00,125.00 150.00,125.00 150.00,125.00 150.00,150.00 150.00,150.00 150.00,150.00 250.00,250.00 250.00,250.00 20000.00,20000.00 -10000.00,20000.00 -10000.00,10250.00 100.00,150.00 100.00,150.00 100.00,100.00 100.00,100.00 100.00,100.00 150.00,100.00 150.00,100.00 " style="fill:yellow;fill-opacity:0.50;stroke:yellow;stroke-width:1" />
<polygon points="225.00,225.00 225.00,225.00 225.00,225.00 225.00,225.00 225.00,225.00 225.00,225.00 225.00,225.00 250.00,250.00 225.00,225.00 200.00,200.00 225.00,225.00 200.00,200.00 20000.00,-10000.00 " style="fill:yellow;fill-opacity:0.50;stroke:yellow;stroke-width:1" />
<polygon points="20000.00,300.00 20000.00,300.00 20000.00,300.00 20000.00,20000.00 20000.00,20000.00 -10000.00,20000.00 -10000.00,-7425.00 100.00,150.00 100.00,150.00 100.00,150.00 100.00,150.00 100.00,100.00 250.00,250.00 250.00,250.00 150.00,150.00 150.00,150.00 150.00,100.00 20000.00,-10000.00 " style="fill:yellow;fill-opacity:0.50;stroke:yellow;stroke-width:1" />
</svg>
