<svg xmlns="http://www.w3.org/2000/svg">
<line x1="100.00" y1="150.00" x2="100.00" y2="100.00" stroke="green" stroke-width="1" />
<line x1="100.00" y1="150.00" x2="100.00" y2="100.00" stroke="green" stroke-width="1" />
<line x1="150.00" y1="200.00" x2="150.00" y2="150.00" stroke="green" stroke-width="1" />
<line x1="150.00" y1="200.00" x2="150.00" y2="150.00" stroke="green" stroke-width="1" />
<polygon points="150.00,125.00 150.00,150.00 150.00,150.00 150.00,150.00 150.00,150.00 20000.00,20000.00 20000.00,20000.00 112.26,150.00 100.00,150.00 100.00,150.00 100.00,150.00 -10000.00,10250.00 -10000.00,-10000.00 100.00,100.00 100.00,100.00 100.00,100.00 100.00,100.00 -10000.00,-10000.00 -10000.00,-10000.00 150.00,100.00 150.00,100.00 10250.00,-10000.00 20000.00,-10000.00 " style="fill:yellow;fill-opacity:0.50;stroke:yellow;stroke-width:1" />
<polygon points="225.00,225.00 225.00,225.00 225.00,225.00 225.00,225.00 150.00,150.00 150.00,150.00 150.00,150.00 150.00,150.00 100.00,100.00 100.00,100.00 100.00,100.00 100.00,100.00 -10000.00,-10000.00 -10000.00,-10000.00 150.00,100.00 150.00,100.00 150.00,100.00 150.00,100.00 150.00,100.00 150.00,100.00 -5910.00,-10000.00 20000.00,-10000.00 " style="fill:yellow;fill-opacity:0.50;stroke:yellow;stroke-width:1" />
<polygon points="20000.00,300.00 20000.00,20000.00 20000.00,20000.00 -10000.00,20000.00 -10000.00,-10000.00 100.00,100.00 100.00,100.00 100.00,100.00 100.00,100.00 -10000.00,-10000.00 -10000.00,-10000.00 20000.00,-10000.00 20000.00,-10000.00 " style="fill:yellow;fill-opacity:0.50;stroke:yellow;stroke-width:1" />
</svg>
